<?xml version="1.0" standalone="no"?>
<!DOCTYPE svg PUBLIC "-//W3C//DTD SVG 20010904//EN"
 "http://www.w3.org/TR/2001/REC-SVG-20010904/DTD/svg10.dtd">
<svg version="1.0" xmlns="http://www.w3.org/2000/svg"
 width="256.000000pt" height="256.000000pt" viewBox="0 0 256.000000 256.000000"
 preserveAspectRatio="xMidYMid meet">
<metadata>
Created by potrace 1.14, written by Peter Selinger 2001-2017
</metadata>
<g transform="translate(0.000000,256.000000) scale(0.100000,-0.100000)"
fill="#000000" stroke="none">
<path d="M810 2204 c-221 -47 -408 -236 -455 -459 -21 -101 -21 -829 0 -930
47 -222 235 -412 455 -459 49 -11 165 -14 472 -15 374 0 413 1 484 19 74 19
190 74 221 105 8 8 22 20 32 27 35 25 115 134 143 194 56 119 60 166 56 629
-4 399 -5 423 -26 485 -66 201 -232 354 -439 407 -15 4 -219 8 -453 9 -336 2
-439 0 -490 -12z m762 -73 c4 -1 8 -383 8 -851 0 -799 -1 -850 -18 -851 -9 0
-170 -1 -357 -1 -305 1 -347 3 -407 20 -175 50 -317 200 -358 377 -12 50 -18
822 -7 875 14 66 21 90 49 148 72 151 230 264 392 279 34 3 62 6 63 7 1 1 622
-2 635 -3z m177 -16 c217 -57 371 -245 381 -465 4 -77 26 -70 -232 -70 l-233
0 0 275 c0 310 -8 285 84 260z m382 -635 c0 -8 1 -104 2 -213 2 -191 1 -197
-18 -198 -26 -1 -403 -1 -430 0 -20 1 -20 8 -20 211 l0 209 25 3 c14 2 118 3
233 3 177 0 207 -2 208 -15z m2 -552 c-12 -232 -165 -427 -378 -483 -99 -25
-90 -51 -89 258 1 149 2 273 3 275 0 1 106 2 234 2 l233 0 -3 -52z"/>
<path d="M980 1660 c-186 -36 -270 -244 -162 -403 l19 -29 -47 -44 c-52 -48
-96 -135 -105 -203 -6 -48 6 -76 35 -84 27 -7 46 23 54 85 8 57 57 133 105
165 28 19 41 22 70 16 45 -10 106 -10 152 1 31 7 41 4 78 -26 53 -40 88 -101
97 -165 7 -56 27 -83 55 -76 69 18 29 181 -70 284 -45 47 -49 54 -36 69 8 9
23 36 35 62 39 89 12 216 -62 285 -51 48 -150 77 -218 63z m140 -114 c137 -90
68 -306 -97 -306 -141 0 -220 176 -126 282 52 59 154 70 223 24z"/>
</g>
</svg>
